<svg xmlns="http://www.w3.org/2000/svg" width="51.971" height="50.653" viewBox="0 0 51.971 50.653">
  <g id="noun-paper-1430549" transform="translate(0.5 0.5)">
    <path id="Path_7066" data-name="Path 7066" d="M40.691,29.622h9.08a1.341,1.341,0,0,0,0-2.682h-9.08a1.341,1.341,0,0,0,0,2.682Z" transform="translate(-19.587 -14.481)" fill="#293243" stroke="#fff" stroke-width="1"/>
    <path id="Path_7067" data-name="Path 7067" d="M18.841,42.412H37.188a1.341,1.341,0,0,0,0-2.682H18.841a1.341,1.341,0,0,0,0,2.682Z" transform="translate(-9.456 -20.412)" fill="#293243" stroke="#fff" stroke-width="1"/>
    <path id="Path_7068" data-name="Path 7068" d="M18.841,55.2H32.249a1.341,1.341,0,0,0,0-2.682H18.841a1.341,1.341,0,0,0,0,2.682Z" transform="translate(-9.456 -26.342)" fill="#293243" stroke="#fff" stroke-width="1"/>
    <path id="Path_7069" data-name="Path 7069" d="M28.9,65.31H18.841a1.341,1.341,0,0,0,0,2.682H28.9a1.341,1.341,0,0,0,0-2.682Z" transform="translate(-9.456 -32.272)" fill="#293243" stroke="#fff" stroke-width="1"/>
    <path id="Path_7070" data-name="Path 7070" d="M27.422,78.09H18.841a1.341,1.341,0,0,0,0,2.682h8.581a1.341,1.341,0,0,0,0-2.682Z" transform="translate(-9.456 -38.198)" fill="#293243" stroke="#fff" stroke-width="1"/>
    <path id="Path_7071" data-name="Path 7071" d="M51.664,23.752l-.815-.579,1.26-1.764a5.186,5.186,0,0,0-1.175-7.24l-1.293-.939A5.186,5.186,0,0,0,42.4,14.4l-.043.059V7.689A3.985,3.985,0,0,0,38.38,3.71H16.927a4.189,4.189,0,0,0-2.993,1.228l-10.2,10.19A4.189,4.189,0,0,0,2.5,18.11V49.383a3.985,3.985,0,0,0,3.979,3.98h31.9a3.985,3.985,0,0,0,3.979-3.985V35.106a1.314,1.314,0,0,0,0-.139l6.924-9.648.815.585a1.609,1.609,0,0,1,.365,2.258l-4.087,5.7a1.341,1.341,0,1,0,2.177,1.566l4.092-5.664a4.291,4.291,0,0,0-.971-6.007ZM14.385,8.285v6.693a.611.611,0,0,1-.611.611H7.059Zm25.293,41.1a1.3,1.3,0,0,1-1.3,1.3H6.479a1.3,1.3,0,0,1-1.3-1.3V18.276h8.581a3.3,3.3,0,0,0,3.293-3.293V6.4H38.38a1.3,1.3,0,0,1,1.3,1.3V18.18L26.27,36.774a1.341,1.341,0,0,0-.241.611L24.757,47.1a1.341,1.341,0,0,0,1.915,1.378l8.817-4.291a1.335,1.335,0,0,0,.5-.424l3.685-5.111Zm-11.166-10.3a5.5,5.5,0,0,1,4.575,3.3l-5.363,2.6ZM49.964,19.837,35.1,40.432a8.163,8.163,0,0,0-5.363-3.867L44.6,15.97a2.5,2.5,0,0,1,3.5-.569l1.3.939a2.5,2.5,0,0,1,.563,3.5Z" transform="translate(-2.5 -3.71)" fill="#293243" stroke="#fff" stroke-width="1"/>
  </g>
</svg>
