<svg xmlns="http://www.w3.org/2000/svg" width="50.964" height="52.191" viewBox="0 0 50.964 52.191">
  <g id="noun-fur-5272817" transform="translate(-21.686 -2.5)">
    <path id="Path_7078" data-name="Path 7078" d="M71.923,2.671a2.563,2.563,0,0,0-1.577-.087C68.681,3.03,29.465,13.655,22.678,28.47c-2.224,4.854-.7,9.611,4.515,14.142a1.5,1.5,0,0,0,.366.229c-2.748,5.039-4.18,9.293-3.621,11.039a1.648,1.648,0,0,0,1.612.811,2.678,2.678,0,0,0,.317-.019c.891-.107,1.472-.633,1.3-1.178-.475-1.482.988-5.5,3.682-10.313.357.007.729.01,1.113.01,1.764,0,3.777-.064,5.689-.137a6.731,6.731,0,0,0,3.793-1.215A2.426,2.426,0,0,0,42.53,39.5l6.149.646a7.407,7.407,0,0,0,4.207-.706,30.969,30.969,0,0,0,6.331-4.562,2.184,2.184,0,0,0,.3-3.164,2.9,2.9,0,0,1-.366-3.632l.037.03a4.6,4.6,0,0,0,3.212.813,3.62,3.62,0,0,0,2.765-1.346,43.124,43.124,0,0,0,2.375-4.344,1.424,1.424,0,0,0-.32-1.635l-4.3-4.611,2.38.081h0c2.665.1,5.036-1.06,5.475-2.679a54.308,54.308,0,0,0,1.87-10.865C72.664,3.187,72.389,2.863,71.923,2.671Zm-4.388,11.4c-.165.607-1.03,1.027-2.049,1l-5.395-.186a2.114,2.114,0,0,0-1.491.474.686.686,0,0,0-.031,1.025l5.817,6.3A41.6,41.6,0,0,1,62.1,26.865c-.011.017-.042.061-.277.045-.868-.7-1.4-1.219-1.417-1.236a2.016,2.016,0,0,0-1.332-.468,2.134,2.134,0,0,0-1.385.408c-2.617,2.173-3.008,4.584-1.132,6.972a.824.824,0,0,1-.088,1.2A28.284,28.284,0,0,1,50.7,37.943a2.638,2.638,0,0,1-1.466.229l-8.446-.888a2.388,2.388,0,0,0-1.446.281.794.794,0,0,0-.452.884l.351,1.2a.875.875,0,0,1-.387.951,2.476,2.476,0,0,1-1.413.452c-1.032.04-3.374.129-5.434.132,5.367-8.892,14.329-19.552,22.9-22.157.812-.247,1.143-.85.739-1.346a2.222,2.222,0,0,0-2.2-.452c-9.5,2.887-18.973,13.941-24.566,23.306-3.807-3.73-4.829-7.6-3.035-11.52C31.275,17.15,60.524,7.7,69.225,5.122A58.173,58.173,0,0,1,67.535,14.067Z" fill="#293243"/>
  </g>
</svg>
