<svg xmlns="http://www.w3.org/2000/svg" width="52.965" height="56.796" viewBox="0 0 52.965 56.796">
  <g id="noun-diary-2149414" transform="translate(1 1)">
    <path id="Path_7077" data-name="Path 7077" d="M76.219,15H41.556a6.531,6.531,0,0,0-6.526,6.48v.568h-1.4a1.933,1.933,0,0,0,0,3.865h1.4v5.343h-1.4a1.933,1.933,0,0,0,0,3.865h1.4v5.343h-1.4a1.933,1.933,0,0,0,0,3.865h1.4v5.343h-1.4a1.933,1.933,0,0,0,0,3.865h1.4v5.343h-1.4a1.933,1.933,0,0,0,0,3.865h1.4v.568a6.531,6.531,0,0,0,6.526,6.48H76.219a6.463,6.463,0,0,0,6.446-6.48V21.48A6.455,6.455,0,0,0,76.219,15ZM38.9,63.316v-.568h1.069a1.933,1.933,0,0,0,0-3.865H38.9V53.539h1.069a1.933,1.933,0,0,0,0-3.865H38.9V44.331h1.069a1.933,1.933,0,0,0,0-3.865H38.9V35.122h1.069a1.933,1.933,0,0,0,0-3.865H38.9V25.914h1.069a1.933,1.933,0,0,0,0-3.865H38.9V21.48a2.654,2.654,0,0,1,2.66-2.615h3.592V65.931H41.556A2.654,2.654,0,0,1,38.9,63.316Zm39.9,0a2.586,2.586,0,0,1-2.581,2.615h-27.2V18.865h27.2A2.586,2.586,0,0,1,78.8,21.48Z" transform="translate(-31.7 -15)" fill="#293243" stroke="#fff" stroke-width="2"/>
  </g>
</svg>
