<svg xmlns="http://www.w3.org/2000/svg" width="51.165" height="51.179" viewBox="0 0 51.165 51.179">
  <g id="noun-books-1368339" transform="translate(0.1 0.1)">
    <path id="Path_7072" data-name="Path 7072" d="M45.739,46.93H30.5a.637.637,0,0,0-.637.637v8.545a.637.637,0,0,0,.637.637H45.739a.637.637,0,0,0,.637-.637V47.567A.637.637,0,0,0,45.739,46.93ZM45.1,55.475H31.14V48.2H45.1Z" transform="translate(-17.325 -23.352)" fill="#293243" stroke="#333" stroke-width="0.2"/>
    <path id="Path_7073" data-name="Path 7073" d="M36.575,52.835h7.5a.637.637,0,0,0,0-1.274h-7.5a.637.637,0,0,0,0,1.274Z" transform="translate(-19.527 -25.032)" fill="#293243" stroke="#333" stroke-width="0.2"/>
    <path id="Path_7074" data-name="Path 7074" d="M36.575,56.982h7.5a.637.637,0,0,0,0-1.274h-7.5a.637.637,0,0,0,0,1.274Z" transform="translate(-19.527 -26.537)" fill="#293243" stroke="#333" stroke-width="0.2"/>
    <path id="Path_7075" data-name="Path 7075" d="M60.6,14.869,46.867,12.863v-2.3a.637.637,0,0,0-.637-.637H10.822a.637.637,0,0,0-.637.637V57.51a.637.637,0,0,0,.637.637H35.61l18.3,2.755a.688.688,0,0,0,.095.007.638.638,0,0,0,.631-.545l6.5-44.773A.637.637,0,0,0,60.6,14.869Zm-43.4,42V11.205h2.9V27.53a.637.637,0,0,0,.962.548l2.632-1.56,2.632,1.56a.637.637,0,0,0,.962-.548V11.205h18.3V56.873Zm4.175-45.668h4.64V26.411l-2-1.182a.639.639,0,0,0-.65,0l-2,1.182Zm-9.922,0h4.473V56.873H11.459ZM53.468,59.546l-9.293-1.4H46.23a.637.637,0,0,0,.637-.637V14.151L59.79,16.038Z" transform="translate(-10.185 -9.93)" fill="#293243" stroke="#333" stroke-width="0.2"/>
    <path id="Path_7076" data-name="Path 7076" d="M45.739,66.1H30.5a.637.637,0,0,0-.637.637v3.027a.637.637,0,0,0,.637.637H45.739a.637.637,0,0,0,.637-.637V66.734A.637.637,0,0,0,45.739,66.1ZM45.1,69.124H31.14V67.371H45.1Z" transform="translate(-17.325 -30.305)" fill="#293243" stroke="#333" stroke-width="0.2"/>
  </g>
</svg>
