<svg xmlns="http://www.w3.org/2000/svg" width="50.965" height="53.468" viewBox="0 0 50.965 53.468">
  <g id="Group_2369" data-name="Group 2369" transform="translate(365.008 119)">
    <path id="Path_7079" data-name="Path 7079" d="M-353.165-96.81h20.225a.683.683,0,0,0,.683-.683.683.683,0,0,0-.683-.683h-20.225a.683.683,0,0,0-.683.683A.683.683,0,0,0-353.165-96.81Z" transform="translate(-4.143 -7.731)" fill="#293243"/>
    <path id="Path_7080" data-name="Path 7080" d="M-353.165-74.079h20.225a.683.683,0,0,0,.683-.683.683.683,0,0,0-.683-.683h-20.225a.683.683,0,0,0-.683.683A.683.683,0,0,0-353.165-74.079Z" transform="translate(-4.143 -16.17)" fill="#293243"/>
    <path id="Path_7081" data-name="Path 7081" d="M-353.165-85.447h23.513a.683.683,0,0,0,.683-.683.683.683,0,0,0-.683-.683h-23.513a.683.683,0,0,0-.683.683A.682.682,0,0,0-353.165-85.447Z" transform="translate(-4.143 -11.95)" fill="#293243"/>
    <path id="Path_7082" data-name="Path 7082" d="M-314.074-102.5a.908.908,0,0,0-.426-.553l-1.937-1.115.343-.593a2.362,2.362,0,0,0,.238-1.81,2.37,2.37,0,0,0-1.114-1.451l-1.776-1.027a2.454,2.454,0,0,0-3.266.871l-1.538,2.665V-109.9a.911.911,0,0,0-.267-.644L-332-118.733a.91.91,0,0,0-.644-.267H-364.1a.91.91,0,0,0-.911.91v51.647a.91.91,0,0,0,.911.91h39.638a.91.91,0,0,0,.911-.91v-25.4l6.2-10.743,1.149.662-5.326,9.221a.91.91,0,0,0,.334,1.244.9.9,0,0,0,.455.121.909.909,0,0,0,.79-.455l5.781-10.012A.914.914,0,0,0-314.074-102.5Zm-6.36-4.767a.585.585,0,0,1,.776-.207l1.778,1.029a.561.561,0,0,1,.264.345.55.55,0,0,1-.056.425l-4.5,7.8-2.762-1.594Zm-13.28,29.383-2.761-1.594,10.857-18.806,2.761,1.594Zm-3.831,3.9a2.047,2.047,0,0,1-.393-.226l.826-3.532,2.214,1.278Zm11.334-36.38h-5.973v-5.976Zm.84,43.009h-37.816v-49.824h29.181v7.727a.91.91,0,0,0,.911.911h7.724v6.184L-338.509-79.6a.88.88,0,0,0-.045.132.781.781,0,0,0-.053.116l-1.142,4.887a1.337,1.337,0,0,0,.367,1.379l-.792,1.352a.436.436,0,0,0-.021.061,6.832,6.832,0,0,1-1.346-.149c-.026-.006-.172-.04-.384-.1a2.138,2.138,0,0,0,.451-.76A2.686,2.686,0,0,0-342.1-75.2a1.856,1.856,0,0,0-1.848-.612,2.3,2.3,0,0,0-1.464,1.582,2.351,2.351,0,0,0,.451,2.008,6.687,6.687,0,0,1-2.174-.26l-.069-.025a4.38,4.38,0,0,0,.931-1.242,2.011,2.011,0,0,0-.082-1.922,1.929,1.929,0,0,0-1.585-.944,1.71,1.71,0,0,0-1.577.773,2.981,2.981,0,0,0-.207,2.661,3,3,0,0,0,.288.519c-.114.048-.229.092-.347.13a2.9,2.9,0,0,1-2.254-.077,4.637,4.637,0,0,1-1.765-1.852c-.017-.036-.033-.072-.049-.109a8.87,8.87,0,0,0,4.616-3.388,4.145,4.145,0,0,0,.528-3.4,2.406,2.406,0,0,0-1.335-1.513,2.8,2.8,0,0,0-2.294-.047c-2.344,1.053-3.313,4.138-3.221,6.558.006.175.022.455.064.781-2.346.448-2.852.222-2.956.127a.682.682,0,0,0-.872-.39.684.684,0,0,0-.4.878c.539,1.466,3.086,1,4.536.717a3.783,3.783,0,0,0,.16.384,5.97,5.97,0,0,0,2.348,2.458,4.237,4.237,0,0,0,3.32.172,5.787,5.787,0,0,0,.943-.4,3.276,3.276,0,0,0,.858.448,8.115,8.115,0,0,0,4.089.122,7.385,7.385,0,0,0,1.63.575,8.411,8.411,0,0,0,1.888.195.669.669,0,0,0,.367-.121,1.045,1.045,0,0,0,.2.054.91.91,0,0,0,.787-.451l.8-1.363a2.111,2.111,0,0,0,.407.065,1.229,1.229,0,0,0,.978-.431l3.662-3.434a.825.825,0,0,0,.111-.157c.015-.02.04-.03.053-.052l7.221-12.508v21.339Zm-17.4-5.774a1.046,1.046,0,0,1-.564.57,1.346,1.346,0,0,1-.749-1.381,1.067,1.067,0,0,1,.467-.55.364.364,0,0,1,.093-.012.579.579,0,0,1,.412.223A1.351,1.351,0,0,1-342.767-73.127Zm-4.736-1.219a3.119,3.119,0,0,1-.772.967,1.723,1.723,0,0,1-.191-.329,1.612,1.612,0,0,1,.07-1.353.4.4,0,0,1,.37-.189h.032a.561.561,0,0,1,.466.283A.649.649,0,0,1-347.5-74.347Zm-6.655-1.561c-.018-.176-.03-.347-.036-.5-.078-2.041.727-4.5,2.414-5.26a1.267,1.267,0,0,1,.516-.1,1.541,1.541,0,0,1,.644.141,1.061,1.061,0,0,1,.6.655,2.772,2.772,0,0,1-.379,2.3A7.448,7.448,0,0,1-354.158-75.907Z" fill="#293243"/>
  </g>
</svg>
