<svg xmlns="http://www.w3.org/2000/svg" width="41" height="41" viewBox="0 0 41 41">
  <g id="Group_2984" data-name="Group 2984" transform="translate(-1468 -3410)">
    <circle id="Ellipse_25" data-name="Ellipse 25" cx="20.5" cy="20.5" r="20.5" transform="translate(1468 3410)" fill="#fff"/>
    <g id="books" transform="translate(1475.719 3417.707)">
      <path id="Path_88" data-name="Path 88" d="M35.632,39.7l2.916,3.036L25.727,49.166s-1.678.839-2.476-.479c-3.2-5.192,12.382-8.987,12.382-8.987" transform="translate(-13.704 -23.843)" fill="#256382"/>
      <path id="Path_89" data-name="Path 89" d="M26.117,45.131s-2.436.919-2,2.636c.479,1.8,2.436.719,2.436.719L38.739,42.5a3.337,3.337,0,0,1,.559-3.2Z" transform="translate(-14.454 -23.603)" fill="#d9e3e8"/>
      <path id="Path_90" data-name="Path 90" d="M17.944,8.9,29.607,20.922l-13.78,5.712L7,12.015Z" transform="translate(-4.204 -5.345)" fill="#42ade2"/>
      <path id="Path_91" data-name="Path 91" d="M44,42.059l-8.148,3.515L43.844,41.7Zm-.12,1.038-8.667,3.794,8.508-4.154Zm.08.6L32.9,48.77l10.9-5.432Z" transform="translate(-19.759 -25.044)" fill="#94989b"/>
      <path id="Path_92" data-name="Path 92" d="M10.707,34.833c-1.358-3,2.117-3.515,2.117-3.515L4,16.7a1.978,1.978,0,0,0-2,2.157,3.447,3.447,0,0,0,.4,1.6Z" transform="translate(-1.201 -10.03)" fill="#428bc1"/>
      <path id="Path_93" data-name="Path 93" d="M4.316,32.2,1.4,35.236l12.821,6.431s1.678.839,2.476-.479C19.893,35.994,4.316,32.2,4.316,32.2" transform="translate(-0.841 -19.339)" fill="#547725"/>
      <path id="Path_94" data-name="Path 94" d="M14.541,37.631s2.436.919,2,2.636c-.479,1.8-2.4.719-2.4.719L1.959,35A3.337,3.337,0,0,0,1.4,31.8Z" transform="translate(-0.841 -19.099)" fill="#d9e3e8"/>
      <path id="Path_95" data-name="Path 95" d="M11.663,1.4,0,13.422l13.78,5.712L22.607,4.515Z" transform="translate(0 -0.841)" fill="#83bf4f"/>
      <path id="Path_96" data-name="Path 96" d="M2.96,34.2l7.988,3.874L2.8,34.559Zm.16,1.038,8.468,4.154L2.92,35.6Zm-.08.6L13.9,41.27,2.84,36.2Z" transform="translate(-1.682 -20.54)" fill="#94989b"/>
      <path id="Path_97" data-name="Path 97" d="M36.617,27.333c1.358-3-2.117-3.515-2.117-3.515L43.327,9.2a1.978,1.978,0,0,1,2,2.157,3.447,3.447,0,0,1-.4,1.6Z" transform="translate(-20.72 -5.525)" fill="#699635"/>
      <path id="Path_98" data-name="Path 98" d="M40.379,26l2.436,2.556L31.991,33.948s-1.438.679-2.117-.4C27.238,29.2,40.379,26,40.379,26Z" transform="translate(-17.732 -15.615)" fill="#962c2c"/>
      <path id="Path_99" data-name="Path 99" d="M32.4,30.613s-2.077.759-1.678,2.237c.4,1.518,2.037.6,2.037.6l10.265-5.073A2.807,2.807,0,0,1,43.5,25.7Z" transform="translate(-18.421 -15.435)" fill="#d9e3e8"/>
      <path id="Path_100" data-name="Path 100" d="M25.466,0l9.826,10.145L23.669,14.978,16.2,2.636Z" transform="translate(-9.729)" fill="#ed4c5c"/>
      <path id="Path_101" data-name="Path 101" d="M29.83,5.8l1.917,2.117-7.07,2.676L23,7.877Z" transform="translate(-13.813 -3.483)" fill="#fff"/>
      <path id="Path_102" data-name="Path 102" d="M47.546,27.959l-6.87,2.916,6.71-3.275Zm-.08.879-7.349,3.155,7.189-3.515Zm.08.479L38.2,33.591l9.147-4.633Z" transform="translate(-22.942 -16.576)" fill="#94989b"/>
      <path id="Path_103" data-name="Path 103" d="M19.329,21.9c-1.118-2.516,1.8-2.956,1.8-2.956L13.617,6.6A1.676,1.676,0,0,0,11.9,8.4a3.188,3.188,0,0,0,.32,1.358Z" transform="translate(-7.147 -3.964)" fill="#c94747"/>
    </g>
  </g>
</svg>
