<svg xmlns="http://www.w3.org/2000/svg" width="35" height="34" viewBox="0 0 35 34">
  <g id="Group_2992" data-name="Group 2992" transform="translate(-1236 -3054)">
    <ellipse id="Ellipse_24" data-name="Ellipse 24" cx="17.5" cy="17" rx="17.5" ry="17" transform="translate(1236 3054)" fill="#fff"/>
    <g id="bulb-svgrepo-com" transform="translate(1221.083 3061.039)">
      <path id="Path_128" data-name="Path 128" d="M173.591,360.947l-.3,1.3h-2.248l-.3-1.3Z" transform="translate(-139.75 -342.902)" fill="#3e81c8"/>
      <path id="Path_129" data-name="Path 129" d="M149.3,325.177l-.334,1.4h-4.881l-.334-1.4Z" transform="translate(-114.109 -308.92)" fill="#3e81c8"/>
      <rect id="Rectangle_36" data-name="Rectangle 36" width="3.15" height="3.187" transform="translate(30.842 12.74)" fill="#eb7830"/>
      <path id="Path_130" data-name="Path 130" d="M165.132,185.2l-.322,2.778h-3.147l-.322-2.778.375.2a1.259,1.259,0,0,0,.539.105.4.4,0,0,0,.278-.131l.7-.626.7.626a.4.4,0,0,0,.278.131h.018a1.314,1.314,0,0,0,.521-.106Z" transform="translate(-130.82 -175.506)" fill="#eb7830"/>
      <path id="Path_131" data-name="Path 131" d="M111.04,83.264a4.6,4.6,0,0,1-.464,2.028,13.56,13.56,0,0,0-1.471,5.05h-1.117V87.066l.446-3.274c.031-.218.179-.421-.04-.452a.4.4,0,0,0-.327.1l-.9.83-.728-.8a.4.4,0,0,0-.593,0l-.729.8-.9-.831c-.162-.149-.165-.139-.315.023a.4.4,0,0,0-.1.327l.5,3.274v3.276h-1.117a12.574,12.574,0,0,0-1.436-4.981,4.6,4.6,0,0,1-.5-2.082,4.9,4.9,0,1,1,9.8-.015Z" transform="translate(-73.724 -74.446)" fill="#f5c525"/>
      <g id="Group_636" data-name="Group 636" transform="translate(23.637)">
        <path id="Path_132" data-name="Path 132" d="M95.69,67.362h-.077a5.467,5.467,0,0,0-5.372,5.467,5.39,5.39,0,0,0,.585,2.441,10.422,10.422,0,0,1,1.356,4.667v.1a.4.4,0,0,0,.017.115h0l0,0,.55,1.817a.4.4,0,0,0,.382.284h.511l.409,1.37a.4.4,0,0,0,.383.285h2.507a.4.4,0,0,0,.383-.285l.409-1.37h.511a.4.4,0,0,0,.382-.284l.551-1.817a.012.012,0,0,1,0,0h0a.4.4,0,0,0,.018-.115v-.125a11.178,11.178,0,0,1,1.4-4.725,5.392,5.392,0,0,0,.545-2.378A5.456,5.456,0,0,0,95.69,67.362Zm.955,15.755H94.735l-.255-.855H96.9Zm1.3-1.655H93.43l-.309-1.021H98.26Zm-3.584-5.247-.322-2.278.375.345a.4.4,0,0,0,.567-.025l.7-.776.7.776a.4.4,0,0,0,.278.131h.018a.4.4,0,0,0,.271-.106l.375-.345-.322,2.278Zm2.621.8v2.626h-2.6V77.014Zm2.888-2.174a12.366,12.366,0,0,0-1.471,4.8h-.617V76.614l.5-3.674a.4.4,0,0,0-.667-.35l-.9.83-.728-.8a.4.4,0,0,0-.593,0l-.729.8-.9-.831a.4.4,0,0,0-.667.35l.5,3.674v3.026h-.617a11.579,11.579,0,0,0-1.436-4.731,4.6,4.6,0,0,1-.5-2.082,4.65,4.65,0,1,1,9.3-.015A4.6,4.6,0,0,1,99.876,74.84Z" transform="translate(-86.911 -63.994)" fill="#231f20"/>
        <path id="Path_133" data-name="Path 133" d="M25.835,168.014a.4.4,0,0,0-.4-.4h-1.4a.4.4,0,1,0,0,.8h1.4A.4.4,0,0,0,25.835,168.014Z" transform="translate(-23.637 -159.234)" fill="#231f20"/>
        <path id="Path_134" data-name="Path 134" d="M332.7,167.614h-1.4a.4.4,0,1,0,0,.8h1.4a.4.4,0,0,0,0-.8Z" transform="translate(-315.539 -159.234)" fill="#231f20"/>
        <path id="Path_135" data-name="Path 135" d="M47.9,84.557l-1.211-.7a.4.4,0,0,0-.4.693l1.211.7a.4.4,0,1,0,.4-.693Z" transform="translate(-44.969 -79.615)" fill="#231f20"/>
        <path id="Path_136" data-name="Path 136" d="M314,238.19l-1.211-.7a.4.4,0,0,0-.4.693l1.211.7a.4.4,0,1,0,.4-.693Z" transform="translate(-297.763 -225.566)" fill="#231f20"/>
        <path id="Path_137" data-name="Path 137" d="M108.2,24.267a.4.4,0,0,0,.693-.4l-.7-1.211a.4.4,0,0,0-.693.4Z" transform="translate(-103.254 -21.333)" fill="#231f20"/>
        <path id="Path_138" data-name="Path 138" d="M191.651,2.2a.4.4,0,0,0,.4-.4V.4a.4.4,0,0,0-.8,0V1.8A.4.4,0,0,0,191.651,2.2Z" transform="translate(-182.871)" fill="#231f20"/>
        <path id="Path_139" data-name="Path 139" d="M261.275,24.413a.4.4,0,0,0,.546-.146l.7-1.211a.4.4,0,1,0-.693-.4l-.7,1.211A.4.4,0,0,0,261.275,24.413Z" transform="translate(-249.204 -21.333)" fill="#231f20"/>
        <path id="Path_140" data-name="Path 140" d="M312.589,85.306a.4.4,0,0,0,.2-.054l1.211-.7a.4.4,0,1,0-.4-.693l-1.211.7a.4.4,0,0,0,.2.746Z" transform="translate(-297.763 -79.617)" fill="#231f20"/>
        <path id="Path_141" data-name="Path 141" d="M47.5,237.491l-1.211.7a.4.4,0,1,0,.4.693l1.211-.7a.4.4,0,1,0-.4-.693Z" transform="translate(-44.969 -225.567)" fill="#231f20"/>
      </g>
    </g>
  </g>
</svg>
