<svg xmlns="http://www.w3.org/2000/svg" width="40.903" height="44.256" viewBox="0 0 40.903 44.256">
  <g id="noun-directory-submission-995443" transform="translate(-8.399 9.036)">
    <g id="Group_2173" data-name="Group 2173" transform="translate(8.599 -8.836)">
      <path id="Path_7021" data-name="Path 7021" d="M46.049,47.5l-2.012-2.012-.738.671,2.749,2.749,6.371-6.371-.738-.738Z" transform="translate(-15.806 -13.635)" fill="#3d3d3d" stroke="#3d3d3d" stroke-width="0.4"/>
      <path id="Path_7022" data-name="Path 7022" d="M42.8,31.385a8.483,8.483,0,0,0-6.572-8.248V5.5h-7.98V5.031a1.874,1.874,0,0,0-1.878-1.878H23.021a3.855,3.855,0,0,0-7.645,0H12.023a1.874,1.874,0,0,0-1.878,1.878V5.5H2.3V43.656H36.232V39.566A8.351,8.351,0,0,0,42.8,31.385ZM11.219,5.031a.888.888,0,0,1,.872-.872h4.292V3.622a2.816,2.816,0,1,1,5.633,0v.469h4.292a.888.888,0,0,1,.872.872V7.311H11.219ZM35.226,42.65H3.306V6.506H10.28V8.316H28.252V6.506h6.974V22.935c-.268,0-.6-.067-.872-.067a8.449,8.449,0,0,0,0,16.9,3.824,3.824,0,0,0,.872-.067Zm-.872-3.822A7.443,7.443,0,1,1,41.8,31.385,7.47,7.47,0,0,1,34.354,38.828Z" transform="translate(-2.3 0.2)" fill="#3d3d3d" stroke="#3d3d3d" stroke-width="0.4"/>
      <rect id="Rectangle_48" data-name="Rectangle 48" width="10.796" height="1.006" transform="translate(14.82 24.007)" fill="#3d3d3d" stroke="#3d3d3d" stroke-width="0.4"/>
      <rect id="Rectangle_49" data-name="Rectangle 49" width="7.645" height="1.006" transform="translate(14.82 27.092)" fill="#3d3d3d" stroke="#3d3d3d" stroke-width="0.4"/>
      <path id="Path_7023" data-name="Path 7023" d="M8.5,40.748h8.181V32.5H8.5Zm1.006-7.242h6.169v6.169H9.506Z" transform="translate(-4.342 -10.572)" fill="#3d3d3d" stroke="#3d3d3d" stroke-width="0.4"/>
      <rect id="Rectangle_50" data-name="Rectangle 50" width="15.222" height="1.006" transform="translate(14.82 13.412)" fill="#3d3d3d" stroke="#3d3d3d" stroke-width="0.4"/>
      <rect id="Rectangle_51" data-name="Rectangle 51" width="13.009" height="1.006" transform="translate(14.82 16.496)" fill="#3d3d3d" stroke="#3d3d3d" stroke-width="0.4"/>
      <path id="Path_7024" data-name="Path 7024" d="M8.5,24.981h8.181V16.8H8.5Zm1.006-7.242h6.169v6.169H9.506Z" transform="translate(-4.342 -5.4)" fill="#3d3d3d" stroke="#3d3d3d" stroke-width="0.4"/>
      <rect id="Rectangle_52" data-name="Rectangle 52" width="7.443" height="1.006" transform="translate(14.82 34.602)" fill="#3d3d3d" stroke="#3d3d3d" stroke-width="0.4"/>
      <rect id="Rectangle_53" data-name="Rectangle 53" width="10.126" height="1.006" transform="translate(14.82 37.687)" fill="#3d3d3d" stroke="#3d3d3d" stroke-width="0.4"/>
      <path id="Path_7025" data-name="Path 7025" d="M8.5,56.548h8.181V48.3H8.5Zm1.006-7.242h6.169v6.169H9.506Z" transform="translate(-4.342 -15.777)" fill="#3d3d3d" stroke="#3d3d3d" stroke-width="0.4"/>
      <rect id="Rectangle_54" data-name="Rectangle 54" width="1.073" height="1.006" transform="translate(16.429 3.487)" fill="#3d3d3d" stroke="#3d3d3d" stroke-width="0.4"/>
    </g>
  </g>
</svg>
