<svg xmlns="http://www.w3.org/2000/svg" width="46.887" height="45.693" viewBox="0 0 46.887 45.693">
  <g id="noun-paper-1430549" transform="translate(0.35 0.35)">
    <path id="Path_7066" data-name="Path 7066" d="M40.565,29.37h8.228a1.215,1.215,0,0,0,0-2.43H40.565a1.215,1.215,0,0,0,0,2.43Z" transform="translate(-21.442 -15.65)" fill="#3d3d3d" stroke="#fff" stroke-width="0.7"/>
    <path id="Path_7067" data-name="Path 7067" d="M18.715,42.16H35.341a1.215,1.215,0,0,0,0-2.43H18.715a1.215,1.215,0,0,0,0,2.43Z" transform="translate(-10.211 -22.225)" fill="#3d3d3d" stroke="#fff" stroke-width="0.7"/>
    <path id="Path_7068" data-name="Path 7068" d="M18.715,54.95h12.15a1.215,1.215,0,0,0,0-2.43H18.715a1.215,1.215,0,0,0,0,2.43Z" transform="translate(-10.211 -28.799)" fill="#3d3d3d" stroke="#fff" stroke-width="0.7"/>
    <path id="Path_7069" data-name="Path 7069" d="M27.832,65.31H18.715a1.215,1.215,0,0,0,0,2.43h9.117a1.215,1.215,0,0,0,0-2.43Z" transform="translate(-10.211 -35.373)" fill="#3d3d3d" stroke="#fff" stroke-width="0.7"/>
    <path id="Path_7070" data-name="Path 7070" d="M26.491,78.09H18.715a1.215,1.215,0,0,0,0,2.43h7.776a1.215,1.215,0,0,0,0-2.43Z" transform="translate(-10.211 -41.942)" fill="#3d3d3d" stroke="#fff" stroke-width="0.7"/>
    <path id="Path_7071" data-name="Path 7071" d="M47.05,21.871l-.739-.525,1.142-1.6a4.7,4.7,0,0,0-1.064-6.561l-1.171-.85A4.7,4.7,0,0,0,38.657,13.4l-.039.053V7.316A3.611,3.611,0,0,0,35.013,3.71H15.573a3.8,3.8,0,0,0-2.712,1.113L3.618,14.057a3.8,3.8,0,0,0-1.118,2.7V45.1A3.611,3.611,0,0,0,6.106,48.7H35.013a3.611,3.611,0,0,0,3.606-3.611V32.16a1.191,1.191,0,0,0,0-.126l6.274-8.743.739.53a1.458,1.458,0,0,1,.33,2.046l-3.7,5.161a1.215,1.215,0,1,0,1.973,1.419l3.708-5.132a3.888,3.888,0,0,0-.88-5.443ZM13.269,7.855v6.065a.554.554,0,0,1-.554.554H6.631ZM36.189,45.1a1.181,1.181,0,0,1-1.176,1.181H6.106A1.176,1.176,0,0,1,4.93,45.1V16.909h7.776a2.989,2.989,0,0,0,2.984-2.984V6.15H35.013a1.176,1.176,0,0,1,1.176,1.176v9.5L24.039,33.671a1.215,1.215,0,0,0-.219.554l-1.152,8.806A1.215,1.215,0,0,0,24.4,44.28l7.99-3.888a1.21,1.21,0,0,0,.457-.384l3.339-4.631ZM26.07,35.766a4.986,4.986,0,0,1,4.145,2.989l-4.86,2.352ZM45.51,18.324,32.043,36.986a7.4,7.4,0,0,0-4.86-3.5L40.65,14.82a2.27,2.27,0,0,1,3.169-.515l1.181.85a2.265,2.265,0,0,1,.51,3.169Z" transform="translate(-2.5 -3.71)" fill="#3d3d3d" stroke="#fff" stroke-width="0.7"/>
  </g>
</svg>
