<svg xmlns="http://www.w3.org/2000/svg" width="40.157" height="45.176" viewBox="0 0 40.157 45.176">
  <g id="noun-writing-1619881" transform="translate(11 -19)">
    <rect id="Rectangle_738" data-name="Rectangle 738" width="25.972" height="1.855" transform="translate(-7.29 23.638)" fill="#3d3d3d"/>
    <rect id="Rectangle_739" data-name="Rectangle 739" width="25.972" height="1.855" transform="translate(-7.29 27.348)" fill="#3d3d3d"/>
    <rect id="Rectangle_740" data-name="Rectangle 740" width="25.972" height="0.928" transform="translate(-7.29 31.058)" fill="#3d3d3d"/>
    <rect id="Rectangle_741" data-name="Rectangle 741" width="25.972" height="1.855" transform="translate(-7.29 33.841)" fill="#3d3d3d"/>
    <rect id="Rectangle_742" data-name="Rectangle 742" width="25.972" height="1.855" transform="translate(-7.29 37.551)" fill="#3d3d3d"/>
    <rect id="Rectangle_743" data-name="Rectangle 743" width="25.972" height="1.855" transform="translate(-7.29 40.334)" fill="#3d3d3d"/>
    <rect id="Rectangle_744" data-name="Rectangle 744" width="25.972" height="1.855" transform="translate(-7.29 44.044)" fill="#3d3d3d"/>
    <rect id="Rectangle_745" data-name="Rectangle 745" width="25.972" height="0.928" transform="translate(-7.29 47.755)" fill="#3d3d3d"/>
    <rect id="Rectangle_746" data-name="Rectangle 746" width="12.986" height="1.855" transform="translate(-7.29 50.537)" fill="#3d3d3d"/>
    <path id="Path_9246" data-name="Path 9246" d="M13.02,22H11.346A3.356,3.356,0,0,0,8,25.346V50.11l4.183,7.027,4.183-7.027V25.346A3.356,3.356,0,0,0,13.02,22Zm1.673,27.608-2.51,4.183-2.51-4.183V28.693h5.02Zm0-22.588H9.673V25.346a1.581,1.581,0,0,1,1.673-1.673H13.02a1.581,1.581,0,0,1,1.673,1.673Z" transform="translate(12.791 2.02)" fill="#3d3d3d"/>
    <path id="Path_9247" data-name="Path 9247" d="M20.791,60.83V62.5H-9.327V20.673H20.791v1.673h1.673V20.673A1.72,1.72,0,0,0,20.623,19H-9.159A1.72,1.72,0,0,0-11,20.673V62.5a1.72,1.72,0,0,0,1.841,1.673h29.95A1.72,1.72,0,0,0,22.631,62.5V60.83Z" transform="translate(0 0)" fill="#3d3d3d"/>
  </g>
</svg>
