<svg xmlns="http://www.w3.org/2000/svg" width="40.504" height="44" viewBox="0 0 40.504 44">
  <g id="noun-journal-5678980" transform="translate(-6.45 -4)">
    <g id="Group_2176" data-name="Group 2176" transform="translate(6.45 4)">
      <path id="Path_7021" data-name="Path 7021" d="M40.346,48H34.382a.786.786,0,0,1,0-1.571h5.964a5,5,0,0,0,5.036-4.934V7.709a2.129,2.129,0,0,0-2.161-2.137h-.872a3.638,3.638,0,0,1,.676,2.106v5.751a.786.786,0,1,1-1.571,0V7.677a2.129,2.129,0,0,0-2.161-2.106H17.1v37h22.2a2.129,2.129,0,0,0,2.161-2.106V19.714a.786.786,0,0,1,1.571,0V40.465a3.709,3.709,0,0,1-3.732,3.677H12.775a1.147,1.147,0,1,0,0,2.286H28.1A.786.786,0,0,1,28.1,48H12.775a2.734,2.734,0,0,1-2.75-2.711h0V39.357H8.807a2.357,2.357,0,0,1,0-4.714h1.218V30.714H8.807a2.357,2.357,0,0,1,0-4.714h1.218V22.071H8.807a2.357,2.357,0,1,1,0-4.714h1.218V13.429H8.807a2.357,2.357,0,0,1,0-4.714h1.218V7.143A3.143,3.143,0,0,1,13.168,4H43.222a3.709,3.709,0,0,1,3.732,3.677V41.463A6.561,6.561,0,0,1,40.346,48ZM11.6,39.357v3.512a2.884,2.884,0,0,1,1.139-.259h2.789V5.571H13.168A1.571,1.571,0,0,0,11.6,7.143V8.714h.825a2.357,2.357,0,0,1,0,4.714H11.6v3.929h.825a2.357,2.357,0,0,1,0,4.714H11.6V26h.825a2.357,2.357,0,0,1,0,4.714H11.6v3.929h.825a2.357,2.357,0,0,1,0,4.714Zm-.715-1.571h1.571a.786.786,0,1,0,0-1.571H8.807a.786.786,0,1,0,0,1.571ZM8.807,27.572a.786.786,0,1,0,0,1.571h3.614a.786.786,0,1,0,0-1.571Zm0-8.643a.731.731,0,0,0-.542.228A.786.786,0,0,0,8.807,20.5h3.614a.731.731,0,0,0,.542-.228.786.786,0,0,0-.542-1.344Zm0-8.643a.786.786,0,1,0,0,1.571h3.614a.786.786,0,0,0,0-1.571ZM32.261,35.429A2.679,2.679,0,0,1,30.194,34.4c-.354-.377-.534-.542-.927-.542s-.566.165-.919.542a2.585,2.585,0,0,1-4.125,0c-.354-.377-.526-.542-.919-.542a.786.786,0,0,1,0-1.571,2.648,2.648,0,0,1,2.059,1.029c.361.377.534.542.927.542s.566-.165.919-.542a2.648,2.648,0,0,1,2.059-1.029,2.679,2.679,0,0,1,2.066,1.029c.354.377.534.542.927.542s.566-.165.919-.542a2.679,2.679,0,0,1,2.066-1.029.786.786,0,0,1,0,1.571c-.393,0-.566.165-.927.542A2.648,2.648,0,0,1,32.261,35.429Zm0-3.929a2.679,2.679,0,0,1-2.066-1.029c-.354-.377-.534-.542-.927-.542s-.566.165-.919.542a2.585,2.585,0,0,1-4.125,0c-.354-.377-.526-.542-.919-.542a.786.786,0,0,1,0-1.571,2.648,2.648,0,0,1,2.059,1.029c.361.377.534.542.927.542s.566-.165.919-.542a2.648,2.648,0,0,1,2.059-1.029,2.679,2.679,0,0,1,2.066,1.029c.354.377.534.542.927.542s.566-.165.919-.542a2.679,2.679,0,0,1,2.066-1.029.786.786,0,0,1,0,1.571c-.393,0-.566.165-.927.542A2.648,2.648,0,0,1,32.261,31.5Zm2.907-11.786H23.382a2.357,2.357,0,0,1-2.357-2.357V12.643a2.357,2.357,0,0,1,2.357-2.357H35.168a2.357,2.357,0,0,1,2.357,2.357v4.714A2.357,2.357,0,0,1,35.168,19.714ZM23.382,11.857a.786.786,0,0,0-.786.786v4.714a.786.786,0,0,0,.786.786H35.168a.786.786,0,0,0,.786-.786V12.643a.786.786,0,0,0-.786-.786Z" transform="translate(-6.45 -4)" fill="#3d3d3d"/>
    </g>
  </g>
</svg>
