<svg xmlns="http://www.w3.org/2000/svg" width="46.382" height="46.395" viewBox="0 0 46.382 46.395">
  <g id="Group_3789" data-name="Group 3789" transform="translate(-221.011 -3269.803)">
    <g id="noun-books-1368339" transform="translate(221.111 3269.903)">
      <path id="Path_7072" data-name="Path 7072" d="M44.25,46.93H30.443a.577.577,0,0,0-.577.577V55.25a.577.577,0,0,0,.577.577H44.25a.577.577,0,0,0,.577-.577V47.507A.577.577,0,0,0,44.25,46.93Zm-.577,7.743H31.021V48.085H43.672Z" transform="translate(-18.502 -25.565)" fill="#3d3d3d" stroke="#3d3d3d" stroke-width="0.2"/>
      <path id="Path_7073" data-name="Path 7073" d="M36.515,52.716h6.794a.577.577,0,0,0,0-1.155H36.515a.577.577,0,0,0,0,1.155Z" transform="translate(-21.067 -27.522)" fill="#3d3d3d" stroke="#3d3d3d" stroke-width="0.2"/>
      <path id="Path_7074" data-name="Path 7074" d="M36.515,56.863h6.794a.577.577,0,0,0,0-1.155H36.515a.577.577,0,0,0,0,1.155Z" transform="translate(-21.067 -29.274)" fill="#3d3d3d" stroke="#3d3d3d" stroke-width="0.2"/>
      <path id="Path_7075" data-name="Path 7075" d="M55.873,14.406,43.425,12.588v-2.08a.577.577,0,0,0-.577-.577H10.762a.577.577,0,0,0-.577.577V53.045a.577.577,0,0,0,.577.577H33.224l16.584,2.5a.623.623,0,0,0,.086.006.578.578,0,0,0,.572-.494l5.894-40.571A.577.577,0,0,0,55.873,14.406ZM16.548,52.468V11.085h2.628V25.878a.577.577,0,0,0,.872.5l2.385-1.414,2.385,1.414a.577.577,0,0,0,.872-.5V11.085H42.27V52.468Zm3.783-41.382h4.2V24.865l-1.808-1.071a.579.579,0,0,0-.589,0l-1.808,1.071Zm-8.991,0h4.053V52.468H11.34Zm38.067,43.8-8.421-1.267h1.862a.577.577,0,0,0,.577-.577V13.755l11.71,1.71Z" transform="translate(-10.185 -9.93)" fill="#3d3d3d" stroke="#3d3d3d" stroke-width="0.2"/>
      <path id="Path_7076" data-name="Path 7076" d="M44.25,66.1H30.443a.577.577,0,0,0-.577.577v2.743a.577.577,0,0,0,.577.577H44.25a.577.577,0,0,0,.577-.577V66.674A.577.577,0,0,0,44.25,66.1Zm-.577,2.743H31.021V67.252H43.672Z" transform="translate(-18.502 -33.664)" fill="#3d3d3d" stroke="#3d3d3d" stroke-width="0.2"/>
    </g>
  </g>
</svg>
