<svg xmlns="http://www.w3.org/2000/svg" width="46.181" height="41.908" viewBox="0 0 46.181 41.908">
  <path id="Path_7082" data-name="Path 7082" d="M-318.855-106.066a.735.735,0,0,0-.386-.434l-1.755-.874.311-.465a1.635,1.635,0,0,0,.216-1.418,1.919,1.919,0,0,0-1.009-1.137l-1.609-.805a2.428,2.428,0,0,0-2.96.683l-1.394,2.089v-3.439a.669.669,0,0,0-.242-.5l-7.419-6.419a.894.894,0,0,0-.583-.209h-28.5a.775.775,0,0,0-.826.714v40.481a.775.775,0,0,0,.826.714h35.917a.775.775,0,0,0,.826-.714V-97.717l5.62-8.421,1.041.519-4.826,7.228a.664.664,0,0,0,.3.975.919.919,0,0,0,.412.1.856.856,0,0,0,.716-.357l5.239-7.847A.632.632,0,0,0-318.855-106.066Zm-5.763-3.736a.579.579,0,0,1,.7-.162l1.611.807a.454.454,0,0,1,.239.27.381.381,0,0,1-.051.333l-4.08,6.114-2.5-1.249Zm-12.034,23.03-2.5-1.249,9.838-14.741,2.5,1.249Zm-3.471,3.057a1.946,1.946,0,0,1-.356-.177l.748-2.769,2.006,1Zm10.271-28.515h-5.412v-4.684Zm.761,33.71h-34.266v-39.052h26.442v6.056a.775.775,0,0,0,.826.714h7v4.847L-341-88.117a.63.63,0,0,0-.04.1.579.579,0,0,0-.048.091l-1.035,3.831a.952.952,0,0,0,.332,1.081l-.717,1.06a.312.312,0,0,0-.019.048,7.118,7.118,0,0,1-1.22-.117c-.023,0-.156-.032-.348-.082a1.647,1.647,0,0,0,.409-.6,1.906,1.906,0,0,0-.569-1.971,1.844,1.844,0,0,0-1.675-.48,1.933,1.933,0,0,0-1.327,1.24,1.658,1.658,0,0,0,.409,1.574,6.954,6.954,0,0,1-1.97-.2l-.062-.02a3.524,3.524,0,0,0,.843-.973,1.393,1.393,0,0,0-.074-1.507,1.808,1.808,0,0,0-1.436-.74,1.64,1.64,0,0,0-1.429.606,2.062,2.062,0,0,0-.188,2.086,2.277,2.277,0,0,0,.261.407c-.1.037-.208.072-.315.1a3,3,0,0,1-2.042-.061,3.928,3.928,0,0,1-1.6-1.451c-.015-.028-.03-.056-.044-.086a8.068,8.068,0,0,0,4.183-2.655,2.882,2.882,0,0,0,.478-2.665,2,2,0,0,0-1.21-1.186,2.9,2.9,0,0,0-2.079-.037c-2.124.825-3,3.244-2.919,5.141a5.858,5.858,0,0,0,.058.612c-2.126.351-2.584.174-2.678.1a.651.651,0,0,0-.79-.306.519.519,0,0,0-.367.688c.489,1.149,2.8.786,4.11.562a2.761,2.761,0,0,0,.145.3,5.059,5.059,0,0,0,2.128,1.927,4.389,4.389,0,0,0,3.008.135,5.712,5.712,0,0,0,.855-.315,3.156,3.156,0,0,0,.777.351,8.462,8.462,0,0,0,3.7.1,7.41,7.41,0,0,0,1.477.45,8.768,8.768,0,0,0,1.71.153.671.671,0,0,0,.333-.1,1.066,1.066,0,0,0,.183.042.857.857,0,0,0,.713-.353l.723-1.068a2.189,2.189,0,0,0,.369.051,1.194,1.194,0,0,0,.886-.338l3.319-2.691a.657.657,0,0,0,.1-.123c.014-.016.036-.023.048-.041l6.543-9.8v16.726Zm-15.764-4.525a.889.889,0,0,1-.511.447c-.453-.263-.795-.62-.679-1.082a.885.885,0,0,1,.423-.431.379.379,0,0,1,.084-.009.553.553,0,0,1,.373.175A.963.963,0,0,1-344.855-83.045ZM-349.147-84a2.541,2.541,0,0,1-.7.758,1.321,1.321,0,0,1-.173-.258,1.112,1.112,0,0,1,.064-1.061.385.385,0,0,1,.336-.148h.029a.519.519,0,0,1,.422.222A.449.449,0,0,1-349.147-84Zm-6.03-1.223c-.017-.138-.027-.272-.033-.393-.071-1.6.659-3.53,2.188-4.123a1.3,1.3,0,0,1,.467-.08,1.583,1.583,0,0,1,.583.11.9.9,0,0,1,.542.513,1.931,1.931,0,0,1-.344,1.8A6.769,6.769,0,0,1-355.177-85.224Z" transform="translate(365.008 119)" fill="#3d3d3d"/>
</svg>
