<svg xmlns="http://www.w3.org/2000/svg" width="60" height="60" viewBox="0 0 60 60">
  <g id="Group_2993" data-name="Group 2993" transform="translate(-1223 -3436)">
    <circle id="Ellipse_19" data-name="Ellipse 19" cx="30" cy="30" r="30" transform="translate(1223 3436)" fill="#fff"/>
    <g id="chart-increasing" transform="translate(1239.68 3452.803)">
      <path id="Path_79" data-name="Path 79" d="M53.592,36.02H27.76a.26.26,0,1,1,0-.52H53.592a.26.26,0,1,1,0,.52Zm.26,2.6a.26.26,0,0,0-.26-.26H27.76a.26.26,0,1,0,0,.52H53.592A.26.26,0,0,0,53.852,38.618Zm0,2.858a.26.26,0,0,0-.26-.26H27.76a.26.26,0,1,0,0,.52H53.592A.26.26,0,0,0,53.852,41.476Zm0,2.858a.26.26,0,0,0-.26-.26H27.76a.26.26,0,0,0,0,.52H53.592A.26.26,0,0,0,53.852,44.334Zm0,2.858a.26.26,0,0,0-.26-.26H27.76a.26.26,0,1,0,0,.52H53.592A.26.26,0,0,0,53.852,47.192Zm0,2.858a.26.26,0,0,0-.26-.26H27.76a.26.26,0,0,0,0,.52H53.592A.26.26,0,0,0,53.852,50.05Zm0,2.858a.26.26,0,0,0-.26-.26H27.76a.26.26,0,1,0,0,.52H53.592A.26.26,0,0,0,53.852,52.907Zm0,2.858a.26.26,0,0,0-.26-.26H27.76a.26.26,0,0,0,0,.52H53.592A.26.26,0,0,0,53.852,55.765Zm0,2.858a.26.26,0,0,0-.26-.26H27.76a.26.26,0,0,0,0,.52H53.592A.26.26,0,0,0,53.852,58.623Z" transform="translate(-27.355 -35.355)" fill="#dce2e2"/>
      <path id="Path_80" data-name="Path 80" d="M28.692,118.639a.694.694,0,0,1-.621-1l7.479-15.042a.694.694,0,0,1,1.033-.25l3.8,2.8,10.091-8.961a.694.694,0,1,1,.922,1.038L40.883,106.55a.694.694,0,0,1-.872.04l-3.585-2.638-7.112,14.3A.694.694,0,0,1,28.692,118.639Z" transform="translate(-27.825 -92.36)" fill="#ff473e"/>
      <path id="Path_81" data-name="Path 81" d="M51.237,59.395H25.4a.4.4,0,0,1-.4-.4V33.4a.4.4,0,1,1,.81,0v25.18H51.237a.4.4,0,0,1,0,.81Z" transform="translate(-25 -33)" fill="#b9c5c6"/>
    </g>
  </g>
</svg>
